<svg width="679" height="647" viewBox="0 0 679 647" fill="none" xmlns="http://www.w3.org/2000/svg">
<path d="M339.11 378.259C267.151 289.701 256.081 134.724 339.11 1.88672C422.139 134.724 411.069 289.701 339.11 378.259Z" fill="white" stroke="#1C2B3A" stroke-width="2"/>
<path d="M302.259 351.487C364.253 255.69 508.234 197.271 660.237 235.182C559.549 355.191 408.726 392.553 302.259 351.487Z" fill="white" stroke="#1C2B3A" stroke-width="2"/>
<path d="M316.335 308.17C426.608 337.522 526.664 456.394 537.577 612.661C392.32 553.994 310.176 422.108 316.335 308.17Z" fill="white" stroke="#1C2B3A" stroke-width="2"/>
<path d="M361.885 308.17C368.044 422.108 285.901 553.994 140.643 612.661C151.556 456.394 251.612 337.522 361.885 308.17Z" fill="white" stroke="#1C2B3A" stroke-width="2"/>
<path d="M375.961 351.487C269.494 392.553 118.671 355.191 17.9831 235.182C169.986 197.271 313.967 255.689 375.961 351.487Z" fill="white" stroke="#1C2B3A" stroke-width="2"/>
<path d="M339.11 278.631V212.212" stroke="#C8943A"/>
<path d="M369.554 286.788L402.766 229.268" stroke="#C8943A"/>
<path d="M391.841 309.073L449.365 275.863" stroke="#C8943A"/>
<path d="M399.998 339.515H466.422" stroke="#C8943A"/>
<path d="M391.841 369.957L449.365 403.166" stroke="#C8943A"/>
<path d="M369.554 392.242L402.766 449.762" stroke="#C8943A"/>
<path d="M339.11 400.398V466.817" stroke="#C8943A"/>
<path d="M308.666 392.242L275.454 449.762" stroke="#C8943A"/>
<path d="M286.379 369.957L228.855 403.166" stroke="#C8943A"/>
<path d="M278.222 339.515H211.798" stroke="#C8943A"/>
<path d="M286.379 309.073L228.855 275.863" stroke="#C8943A"/>
<path d="M308.666 286.788L275.454 229.268" stroke="#C8943A"/>
<path d="M339.11 216.64C344.613 216.64 349.074 212.18 349.074 206.678C349.074 201.175 344.613 196.715 339.11 196.715C333.607 196.715 329.146 201.175 329.146 206.678C329.146 212.18 333.607 216.64 339.11 216.64Z" fill="#C8943A"/>
<path d="M400.552 233.102C405.317 235.853 411.411 234.221 414.162 229.456C416.914 224.69 415.281 218.597 410.515 215.846C405.75 213.095 399.656 214.728 396.905 219.493C394.154 224.258 395.786 230.351 400.552 233.102Z" fill="#C8943A"/>
<path d="M445.53 278.078C448.281 282.843 454.375 284.475 459.141 281.724C463.906 278.973 465.539 272.88 462.787 268.115C460.036 263.35 453.942 261.717 449.177 264.468C444.412 267.219 442.779 273.313 445.53 278.078Z" fill="#C8943A"/>
<path d="M461.994 339.515C461.994 345.017 466.455 349.477 471.957 349.477C477.46 349.477 481.921 345.017 481.921 339.515C481.921 334.012 477.46 329.552 471.957 329.552C466.455 329.552 461.994 334.012 461.994 339.515Z" fill="#C8943A"/>
<path d="M445.53 400.952C442.779 405.717 444.412 411.81 449.177 414.561C453.943 417.312 460.036 415.68 462.788 410.915C465.539 406.15 463.906 400.056 459.141 397.305C454.375 394.554 448.282 396.187 445.53 400.952Z" fill="#C8943A"/>
<path d="M400.552 445.927C395.786 448.678 394.154 454.771 396.905 459.536C399.656 464.302 405.75 465.934 410.515 463.183C415.281 460.432 416.914 454.339 414.162 449.574C411.411 444.809 405.317 443.176 400.552 445.927Z" fill="#C8943A"/>
<path d="M339.11 462.389C333.607 462.389 329.147 466.849 329.147 472.352C329.147 477.854 333.607 482.314 339.11 482.314C344.613 482.314 349.074 477.854 349.074 472.352C349.074 466.849 344.613 462.389 339.11 462.389Z" fill="#C8943A"/>
<path d="M277.668 445.927C272.903 443.176 266.809 444.809 264.058 449.574C261.307 454.339 262.939 460.432 267.705 463.183C272.47 465.934 278.564 464.302 281.315 459.537C284.067 454.771 282.434 448.678 277.668 445.927Z" fill="#C8943A"/>
<path d="M232.69 400.952C229.938 396.187 223.845 394.554 219.079 397.305C214.314 400.056 212.681 406.149 215.432 410.914C218.184 415.68 224.277 417.312 229.043 414.561C233.808 411.81 235.441 405.717 232.69 400.952Z" fill="#C8943A"/>
<path d="M216.226 339.515C216.226 334.012 211.766 329.552 206.263 329.552C200.76 329.552 196.299 334.012 196.299 339.515C196.299 345.017 200.76 349.478 206.263 349.478C211.766 349.478 216.226 345.017 216.226 339.515Z" fill="#C8943A"/>
<path d="M232.69 278.077C235.441 273.312 233.808 267.219 229.043 264.468C224.277 261.717 218.184 263.35 215.432 268.115C212.681 272.88 214.314 278.973 219.079 281.724C223.845 284.475 229.938 282.843 232.69 278.077Z" fill="#C8943A"/>
<path d="M277.668 233.102C282.434 230.351 284.067 224.258 281.315 219.493C278.564 214.728 272.47 213.095 267.705 215.846C262.939 218.597 261.307 224.691 264.058 229.456C266.809 234.221 272.903 235.853 277.668 233.102Z" fill="#C8943A"/>
<path d="M339.11 400.398C372.738 400.398 399.998 373.14 399.998 339.515C399.998 305.889 372.738 278.631 339.11 278.631C305.482 278.631 278.222 305.889 278.222 339.515C278.222 373.14 305.482 400.398 339.11 400.398Z" fill="#C8943A"/>
<path d="M339.11 378.259C360.51 378.259 377.857 360.913 377.857 339.515C377.857 318.117 360.51 300.771 339.11 300.771C317.711 300.771 300.363 318.117 300.363 339.515C300.363 360.913 317.711 378.259 339.11 378.259Z" fill="#FAF8F3"/>
<path d="M339.11 356.119C348.281 356.119 355.716 348.685 355.716 339.515C355.716 330.344 348.281 322.91 339.11 322.91C329.939 322.91 322.504 330.344 322.504 339.515C322.504 348.685 329.939 356.119 339.11 356.119Z" fill="#C8943A"/>
</svg>
