<svg width="330" height="54" viewBox="0 0 330 54" fill="none" xmlns="http://www.w3.org/2000/svg">
<path d="M0.32002 51.5201L28.4 4.56006C28.56 4.29339 28.6134 4.13339 28.56 4.08006C28.56 3.97339 28.3734 3.92006 28 3.92006C24.6934 3.92006 21.76 4.00006 19.2 4.16006C16.6934 4.26672 14.48 4.50672 12.56 4.88006C10.6934 5.25339 9.06669 5.84006 7.68002 6.64006C6.29335 7.38673 5.06669 8.40006 4.00002 9.68006C2.93335 10.9067 1.94669 12.4534 1.04002 14.3201C0.986687 14.4267 0.80002 14.4534 0.48002 14.4001C0.16002 14.3467 0.0266864 14.2401 0.0800198 14.0801L3.28002 0.160056C3.33335 0.0533908 3.52002 0.0267245 3.84002 0.0800571C4.16002 0.13339 4.29335 0.213389 4.24002 0.320054C4.08002 1.28005 4.29335 1.89339 4.88002 2.16005C5.46669 2.42672 6.77335 2.56006 8.80002 2.56006C12 2.56006 15.92 2.56006 20.56 2.56006C25.2 2.56006 31.0134 2.56006 38 2.56006C38.2667 2.56006 38.4534 2.69339 38.56 2.96006C38.72 3.22672 38.72 3.44006 38.56 3.60005L10.88 50.4001C10.6667 50.6667 10.5867 50.8534 10.64 50.9601C10.6934 51.0134 10.88 51.0401 11.2 51.0401C14.6667 51.0401 17.8134 51.0401 20.64 51.0401C23.4667 51.0401 25.7067 51.0401 27.36 51.0401C29.3334 51.0401 31.2 50.5601 32.96 49.6001C34.7734 48.5867 36.32 47.2801 37.6 45.6801C38.88 44.0267 39.68 42.2401 40 40.3201C40.0534 40.1601 40.2134 40.0801 40.48 40.0801C40.7467 40.0801 40.88 40.1601 40.88 40.3201L39.76 51.9201C39.76 52.0801 39.7067 52.2667 39.6 52.4801C39.4934 52.6401 39.3067 52.7201 39.04 52.7201C35.0934 52.6667 30.9067 52.6134 26.48 52.5601C22.1067 52.5601 17.7067 52.5601 13.28 52.5601C8.90669 52.5601 4.72002 52.5601 0.72002 52.5601C0.506687 52.5601 0.346687 52.4534 0.24002 52.2401C0.133353 51.9734 0.16002 51.7334 0.32002 51.5201ZM133.966 53.5201C129.272 53.5201 125.086 52.8534 121.406 51.5201C117.726 50.1867 114.606 48.3467 112.046 46.0001C109.486 43.6534 107.539 40.9334 106.206 37.8401C104.872 34.7467 104.206 31.4401 104.206 27.9201C104.206 24.0267 104.979 20.4801 106.526 17.2801C108.072 14.0801 110.259 11.3334 113.086 9.04006C115.912 6.69339 119.219 4.88006 123.006 3.60005C126.792 2.32006 130.926 1.68006 135.406 1.68006C137.912 1.68006 140.446 1.86672 143.006 2.24006C145.566 2.61339 147.646 3.14672 149.246 3.84006C149.832 4.05339 150.152 4.24006 150.206 4.40005C150.312 4.50672 150.392 4.93339 150.446 5.68006L151.486 16.8001C151.486 16.9601 151.352 17.0667 151.086 17.1201C150.819 17.1734 150.632 17.0934 150.526 16.8801C150.152 15.8667 149.486 14.6134 148.526 13.1201C147.619 11.5734 146.419 10.0801 144.926 8.64006C143.432 7.14672 141.646 5.89339 139.566 4.88006C137.486 3.86672 135.086 3.36006 132.366 3.36006C128.952 3.36006 125.832 4.29339 123.006 6.16006C120.232 7.97339 118.019 10.5867 116.366 14.0001C114.712 17.4134 113.886 21.4934 113.886 26.2401C113.886 30.0801 114.419 33.5734 115.486 36.7201C116.606 39.8667 118.152 42.6134 120.126 44.9601C122.152 47.2534 124.499 49.0401 127.166 50.3201C129.832 51.5467 132.766 52.1601 135.966 52.1601C137.992 52.1601 139.619 51.9201 140.846 51.4401C142.072 50.9601 142.952 50.0267 143.486 48.6401C144.072 47.2534 144.366 45.2001 144.366 42.4801C144.366 39.9201 144.206 38.0534 143.886 36.8801C143.619 35.6534 142.926 34.8534 141.806 34.4801C140.686 34.1067 138.872 33.9201 136.366 33.9201C136.046 33.9201 135.886 33.7067 135.886 33.2801C135.886 32.8534 136.019 32.6401 136.286 32.6401C140.019 32.8534 143.379 32.9867 146.366 33.0401C149.352 33.0401 152.499 32.9601 155.806 32.8001C156.019 32.8001 156.126 32.9867 156.126 33.3601C156.179 33.7334 156.072 33.9201 155.806 33.9201C154.899 33.8667 154.232 34.0534 153.806 34.4801C153.379 34.8534 153.112 35.7067 153.006 37.0401C152.899 38.3734 152.846 40.4534 152.846 43.2801C152.846 45.0401 152.899 46.3467 153.006 47.2001C153.112 48.0534 153.192 48.6934 153.246 49.1201C153.352 49.4934 153.406 49.8934 153.406 50.3201C153.406 50.6401 153.352 50.8534 153.246 50.9601C153.139 51.0667 152.899 51.1734 152.526 51.2801C149.592 51.9201 146.499 52.4534 143.246 52.8801C140.046 53.3067 136.952 53.5201 133.966 53.5201ZM172.481 34.2401L173.681 32.0001H196.721L197.281 34.2401H172.481ZM216.161 51.6001C216.428 51.6001 216.561 51.7601 216.561 52.0801C216.561 52.4001 216.428 52.5601 216.161 52.5601C214.561 52.5601 212.881 52.5067 211.121 52.4001C209.415 52.2934 207.761 52.2401 206.161 52.2401C204.348 52.2401 202.775 52.2934 201.441 52.4001C200.108 52.5067 198.615 52.5601 196.961 52.5601C196.748 52.5601 196.641 52.4001 196.641 52.0801C196.641 51.7601 196.748 51.6001 196.961 51.6001C199.148 51.6001 200.401 51.1734 200.721 50.3201C201.095 49.4134 200.615 47.6534 199.281 45.0401L183.041 12.9601L186.961 6.08006L171.041 41.2001C169.601 44.4001 169.575 46.9334 170.961 48.8001C172.348 50.6667 174.535 51.6001 177.521 51.6001C177.788 51.6001 177.921 51.7601 177.921 52.0801C177.921 52.4001 177.788 52.5601 177.521 52.5601C175.921 52.5601 174.455 52.5067 173.121 52.4001C171.788 52.2934 170.108 52.2401 168.081 52.2401C166.001 52.2401 164.321 52.2934 163.041 52.4001C161.815 52.5067 160.295 52.5601 158.481 52.5601C158.268 52.5601 158.161 52.4001 158.161 52.0801C158.161 51.7601 158.268 51.6001 158.481 51.6001C159.921 51.6001 161.148 51.3067 162.161 50.7201C163.228 50.0801 164.268 48.9601 165.281 47.3601C166.348 45.7067 167.548 43.3867 168.881 40.4001L186.241 2.24006C186.295 2.08006 186.535 2.00006 186.961 2.00006C187.388 1.94672 187.628 2.02672 187.681 2.24006L207.681 41.6001C208.961 44.1067 210.055 46.1067 210.961 47.6001C211.921 49.0401 212.801 50.0801 213.601 50.7201C214.455 51.3067 215.308 51.6001 216.161 51.6001ZM258.467 52.5601C257.667 52.5601 256.36 51.5734 254.547 49.6001C252.787 47.5734 250.654 44.6667 248.147 40.8801C245.64 37.0934 242.814 32.5601 239.667 27.2801L247.027 25.0401C251.294 31.4934 254.92 36.6667 257.907 40.5601C260.947 44.4534 263.64 47.2801 265.987 49.0401C268.334 50.7467 270.574 51.6001 272.707 51.6001C272.814 51.6001 272.867 51.7601 272.867 52.0801C272.867 52.4001 272.814 52.5601 272.707 52.5601C268.974 52.5601 265.934 52.5601 263.587 52.5601C261.24 52.5601 259.534 52.5601 258.467 52.5601ZM241.267 2.32006C246.174 2.32006 249.934 3.22672 252.547 5.04006C255.214 6.80005 256.547 9.28005 256.547 12.4801C256.547 15.6267 255.667 18.4267 253.907 20.8801C252.147 23.2801 249.88 25.1467 247.107 26.4801C244.387 27.8134 241.507 28.4801 238.467 28.4801C237.72 28.4801 236.947 28.4801 236.147 28.4801C235.4 28.4801 234.707 28.4534 234.067 28.4001V46.0801C234.067 47.6267 234.2 48.8001 234.467 49.6001C234.734 50.4001 235.267 50.9334 236.067 51.2001C236.867 51.4667 238.094 51.6001 239.747 51.6001C239.854 51.6001 239.907 51.7601 239.907 52.0801C239.907 52.4001 239.854 52.5601 239.747 52.5601C238.36 52.5601 236.814 52.5334 235.107 52.4801C233.4 52.4267 231.534 52.4001 229.507 52.4001C227.587 52.4001 225.747 52.4267 223.987 52.4801C222.28 52.5334 220.734 52.5601 219.347 52.5601C219.187 52.5601 219.107 52.4001 219.107 52.0801C219.107 51.7601 219.187 51.6001 219.347 51.6001C221 51.6001 222.227 51.4667 223.027 51.2001C223.827 50.9334 224.36 50.4001 224.627 49.6001C224.947 48.8001 225.107 47.6267 225.107 46.0801V9.04006C225.107 7.49339 224.974 6.34672 224.707 5.60006C224.44 4.80006 223.907 4.26672 223.107 4.00005C222.307 3.68006 221.08 3.52006 219.427 3.52006C219.32 3.52006 219.267 3.36006 219.267 3.04006C219.267 2.72006 219.32 2.56006 219.427 2.56006C220.814 2.56006 222.36 2.61339 224.067 2.72006C225.774 2.77339 227.587 2.80006 229.507 2.80006C231.267 2.80006 233.187 2.72006 235.267 2.56006C237.4 2.40006 239.4 2.32006 241.267 2.32006ZM247.427 15.5201C247.427 12.3734 247.107 9.97339 246.467 8.32006C245.827 6.66672 244.947 5.54672 243.827 4.96006C242.707 4.32006 241.427 4.00005 239.987 4.00005C237.854 4.00005 236.334 4.40006 235.427 5.20006C234.52 6.00006 234.067 7.33339 234.067 9.20005V26.1601C234.814 26.2667 235.614 26.3467 236.467 26.4001C237.32 26.4534 238.067 26.4801 238.707 26.4801C241.854 26.4801 244.094 25.6267 245.427 23.9201C246.76 22.1601 247.427 19.3601 247.427 15.5201ZM285.606 34.2401L286.806 32.0001H309.846L310.406 34.2401H285.606ZM329.286 51.6001C329.553 51.6001 329.686 51.7601 329.686 52.0801C329.686 52.4001 329.553 52.5601 329.286 52.5601C327.686 52.5601 326.006 52.5067 324.246 52.4001C322.54 52.2934 320.886 52.2401 319.286 52.2401C317.473 52.2401 315.9 52.2934 314.566 52.4001C313.233 52.5067 311.74 52.5601 310.086 52.5601C309.873 52.5601 309.766 52.4001 309.766 52.0801C309.766 51.7601 309.873 51.6001 310.086 51.6001C312.273 51.6001 313.526 51.1734 313.846 50.3201C314.22 49.4134 313.74 47.6534 312.406 45.0401L296.166 12.9601L300.086 6.08006L284.166 41.2001C282.726 44.4001 282.7 46.9334 284.086 48.8001C285.473 50.6667 287.66 51.6001 290.646 51.6001C290.913 51.6001 291.046 51.7601 291.046 52.0801C291.046 52.4001 290.913 52.5601 290.646 52.5601C289.046 52.5601 287.58 52.5067 286.246 52.4001C284.913 52.2934 283.233 52.2401 281.206 52.2401C279.126 52.2401 277.446 52.2934 276.166 52.4001C274.94 52.5067 273.42 52.5601 271.606 52.5601C271.393 52.5601 271.286 52.4001 271.286 52.0801C271.286 51.7601 271.393 51.6001 271.606 51.6001C273.046 51.6001 274.273 51.3067 275.286 50.7201C276.353 50.0801 277.393 48.9601 278.406 47.3601C279.473 45.7067 280.673 43.3867 282.006 40.4001L299.366 2.24006C299.42 2.08006 299.66 2.00006 300.086 2.00006C300.513 1.94672 300.753 2.02672 300.806 2.24006L320.806 41.6001C322.086 44.1067 323.18 46.1067 324.086 47.6001C325.046 49.0401 325.926 50.0801 326.726 50.7201C327.58 51.3067 328.433 51.6001 329.286 51.6001Z" fill="#1C2B3A"/>
<path d="M57.6375 34.2401L58.8375 32.0001H81.8775L82.4375 34.2401H57.6375ZM101.318 51.6001C101.584 51.6001 101.718 51.7601 101.718 52.0801C101.718 52.4001 101.584 52.5601 101.318 52.5601C99.7175 52.5601 98.0375 52.5067 96.2775 52.4001C94.5709 52.2934 92.9175 52.2401 91.3175 52.2401C89.5042 52.2401 87.9309 52.2934 86.5975 52.4001C85.2642 52.5067 83.7709 52.5601 82.1175 52.5601C81.9042 52.5601 81.7975 52.4001 81.7975 52.0801C81.7975 51.7601 81.9042 51.6001 82.1175 51.6001C84.3042 51.6001 85.5575 51.1734 85.8775 50.3201C86.2509 49.4134 85.7709 47.6534 84.4375 45.0401L68.1975 12.9601L72.1175 6.08006L56.1975 41.2001C54.7575 44.4001 54.7309 46.9334 56.1175 48.8001C57.5042 50.6667 59.6909 51.6001 62.6775 51.6001C62.9442 51.6001 63.0775 51.7601 63.0775 52.0801C63.0775 52.4001 62.9442 52.5601 62.6775 52.5601C61.0775 52.5601 59.6109 52.5067 58.2775 52.4001C56.9442 52.2934 55.2642 52.2401 53.2375 52.2401C51.1575 52.2401 49.4775 52.2934 48.1975 52.4001C46.9709 52.5067 45.4509 52.5601 43.6375 52.5601C43.4242 52.5601 43.3175 52.4001 43.3175 52.0801C43.3175 51.7601 43.4242 51.6001 43.6375 51.6001C45.0775 51.6001 46.3042 51.3067 47.3175 50.7201C48.3842 50.0801 49.4242 48.9601 50.4375 47.3601C51.5042 45.7067 52.7042 43.3867 54.0375 40.4001L71.3975 2.24006C71.4509 2.08006 71.6909 2.00006 72.1175 2.00006C72.5442 1.94672 72.7842 2.02672 72.8375 2.24006L92.8375 41.6001C94.1175 44.1067 95.2109 46.1067 96.1175 47.6001C97.0775 49.0401 97.9575 50.0801 98.7575 50.7201C99.6109 51.3067 100.464 51.6001 101.318 51.6001Z" fill="#C8943A"/>
</svg>
